# xmcd
#
# Track frame offsets: 
#        150
#        19589
#        40495
#        59958
#        108317
#        121587
#        178410
#
# Disc length: 2919 seconds
#
# Revision: 0
# Processed by: cddbd v1.4PL0 Copyright (c) Steve Scherf et al.
# Submitted via: ExactAudioCopy v0.90b4
#
DISCID=600b6507
DTITLE=Van Morrison - Olympia Theatre Dublin 4 May Late, disc 2
DYEAR=2002
DGENRE=Celtic
TTITLE0=Back On Top
TTITLE1=That's Life
TTITLE2=Have I Told You Lately 2001
TTITLE3=In The Afternoon
TTITLE4=Star Of The County Down
TTITLE5=It's All In The Game
TTITLE6=Madame George
EXTD=
EXTT0=
EXTT1=
EXTT2=
EXTT3=
EXTT4=
EXTT5=
EXTT6=
PLAYORDER=
